<?xml version="1.0" encoding="UTF-8"?>
<svg width="350.06465" height="284.94736" version="1.1" viewBox="0 0 197.30786 160.60563" xmlns="http://www.w3.org/2000/svg"><g transform="translate(-29.813232,-27.394373)" clip-path="url(#clip-4)"><path d="m227.12109 91.769531c-4e-3 -2.074219-0.87109-4.054687-2.39062-5.464843-1.52344-1.414063-3.5625-2.125-5.63281-1.976563l-13.5 0.996094 0.10156-2.996094c0.0703-2.035156-0.69141-4.007813-2.11328-5.46875-0.2461-0.253906-0.50782-0.488281-0.78516-0.699219l-4e-3 -0.378906c1.45313-1.367188 2.35547-3.304688 2.35547-5.449219v-7.398437c0-2.09375-0.875-4.089844-2.41797-5.507813-1.54296-1.414062-3.60546-2.121093-5.6914-1.941406l-15.625 1.328125c-2.09766 0.179688-3.91797 1.214844-5.15235 2.734375-0.39062-0.800781-0.91406-1.535156-1.57421-2.15625-1.49219-1.414063-3.5-2.148437-5.55079-2.035156l-8.92578 0.496093 0.17188-4.3125 6.33984-9.871093c1.1836-1.84375 1.5-4.113281 0.86328-6.210938-0.63672-2.097656-2.16406-3.808593-4.17187-4.683593l-6.33985-2.757813c-2.63281-1.144531-5.59765-0.660156-7.71093 1.0625-1.82422-1.253906-4.16797-1.671875-6.41016-0.992187-1.19531 0.367187-2.82812 0.863281-4.20312 1.285156-0.91797-0.355469-1.91016-0.527344-2.91797-0.5l-8.53125 0.242187c-0.61719 0.01953-1.22266 0.113281-1.80078 0.273438-1.22266-0.683594-2.64063-1.027344-4.10157-0.933594l-9.0039 0.550781c-3.88281 0.238282-6.9375 3.417969-7.01563 7.308594l-0.27343 13.417969c-1.32813-0.08203-2.62891 0.09375-3.77344 0.417969-2.101565-0.746094-4.375002-0.773438-6.445315-0.01563-2.417969 0.875-4.417969 2.789063-5.488281 5.242188-0.199219 0.460938-0.363282 0.925781-0.496094 1.398438-1.257722-1.136715-2.90616-1.855465-4.730379-1.925778l-9.925781-0.367187c-4.089844-0.132813-7.539062 3.015625-7.742188 7.101562-0.4375 8.789063-0.539062 15.714844-0.316406 20.746094-9.28125-1.425781-18.242187-0.183594-24.957031 3.644531-7.328125 4.171875-12 11.90625-11.363281 18.808594 0.492187 5.32422 3.839844 9.58984 9.253906 11.85547l1.65625 25.6875c0.128906 2 1.054688 3.86328 2.570312 5.17578 1.363282 1.17578 3.101563 1.82031 4.890626 1.82031 0.199218 0 0.398437-8e-3 0.601562-0.0234l14.503906-1.16796c-0.03125 0.12109-0.06641 0.24218-0.09375 0.36328-1.773437 7.28515 0.550782 17.53515 5.78125 25.50781 4.824219 7.35547 11.4375 11.94141 19.121094 13.26953 2.796875 0.48043 5.394531 0.73043 7.84375 0.73043 8.82031 0 15.64844-3.21875 22.36719-10.25391 6.11328-6.39843 7.91015-15.46875 4.5625-22.74609 1.6289 0.44141 3.36719 0.99609 5.21484 1.6875 3.48047 1.30078 6.65625 2.58984 9.72656 3.83203 14.45313 5.85547 25.8711 10.48047 46.21094 7.40234 13.9375-2.11328 24.55078-8.83984 31.54297-20 5.59375-8.92578 7.92969-18.99609 9.62109-28.54687 1.89063-10.65234 1.875-26.917969 1.875-27.605469" fill="#361e58"/></g><g fill="#fff"><path d="m31.66333 86.836097-1.015624-13.74609s3.050781-0.507818 5.632812 1.12109c1.859375 1.17578 4.195312 5.30469 2.636719 8.67969-1.527344 3.30859-7.253907 3.94531-7.253907 3.94531m21.878907 2.4375c4.058593-8.48438-1.105469-22.13672-11.808594-25.457032-10.699219-3.320313-20.453125-2.25-26.613281 1.257812-7.2890631 4.148438-11.7578131 14.23828-2.164063 17.55859 0 0-0.253906-6.36328 2.929688-7.63281l2.542969 39.449223 14.820312-1.19141-0.820312-12.67968s17.054687-2.816413 21.113281-11.304693"/><path d="m63.643799 60.109533v-9.007812l-9.558593-0.734375v-15.441407l-9.921876-0.367187s-1.105468 22.238281 0.367188 26.101563z"/><path d="m75.593018 43.011877-6.800781 0.1875-0.550781 16.910156 7.535152-0.554687z"/><path d="m87.354738 60.293127 7.72266 0.183594 0.55078-13.789063 6.617182-0.179687 0.36719-8.640625-21.691402-0.367188v9.925781l6.98828-0.367187z"/><path d="m111.61646 60.945471 8.64062 0.191406 0.36719-14.367188 5.69922 0.183594-0.1836-9.527344h-19.30078l-0.18359 8.941407 5.51562 0.296875z"/><path d="m130.36646 35.949377s-0.91797 19.992188 0 25.507812l19.30078-0.921874-0.36719-7.085938-9.55859-0.367188v-17.65625z"/><path d="m168.22974 60.035315 0.18359-5.355469-8.08594 0.05469-0.18359-2.839844 5.40234-0.425781-0.0742-5.695312h-4.96094l-0.1836-2.550781 7.53516-0.285157v-7.398437l-15.62109 1.332031 0.91797 23.273437z"/><path d="m90.327398 31.129065c0-0.554688 0.62109-9.007813 0.62109-9.007813l3.26172 2.390625 3.98047-3.308594 0.24609 10.046875 7.984372 0.429688-0.18359-22.7304694-8.531252 0.246094-2.80469 5.3906254-2.85546-6.0664074-9 0.550782-0.46094 22.4257814s7.74219 0.183594 7.74219-0.367187"/><path d="m114.28443 31.004065h8.53515l0.36719-9.1875 7.43359-11.582032-6.33984-2.7578124-4.875 8.5781254-4.08594-8.2070314s-6.03125 1.835937-6.58203 2.019531l6.03516 12.1328124z"/><path d="m70.03833 37.855627c0.624998 0.570312 1.445318 1.066406 2.089848 1.527344 1.71093-1.871094 4.14062-4.292969 4.40625-7.230469 0.0508-0.558594-0.0547-1.632813-0.89453-2.140625-0.63282-0.382812-1.875-0.195312-2.55079 0.101562-0.57421 0.253907-1.19921 0.992188-1.71484 1.871094-0.31641-0.597656-0.88672-1.253906-1.613281-1.789062-0.609375-0.441406-1.425781-0.6875-2.128907-0.429688-0.554687 0.199219-0.960937 0.679688-1.191406 1.207032-0.5625 1.296874-0.160156 2.839843 0.664063 4.007812 0.828125 1.164062 1.871093 1.90625 2.933593 2.875"/><path d="m121.65552 81.757967-7.37891-14.074215-12.85156-0.175781c-0.19141 1.394531-0.59375 25.617186-0.37891 33.769529 0.1875 7.14454 0.21875 6.71485 0.21875 6.71485s3.21485 1.48828 6.23438 2.80859 7.25391 2.78906 7.25391 2.78906l0.28515-18.484373 14.11719 21.167973s3.16016 0.48828 6.5 0.2539c4.21875-0.29296 5.83203-0.64843 5.83203-0.64843l-1.30469-49.347662h-13.99218s0.3789 23.242189 0.5664 23.941409c0.19141 0.69531-5.10156-8.71485-5.10156-8.71485"/><path d="m75.046148 74.632967c0.25781-0.58593 0.70703-1.12109 1.32031-1.34375 0.78515-0.28515 1.6914-0.0117 2.36328 0.48047 0.8125 0.59375 1.44141 1.32032 1.79687 1.98438 0.57422-0.97656 1.26563-1.79297 1.90235-2.07422 0.75-0.32813 2.13281-0.54297 2.83594-0.11328 0.93359 0.5625 1.05078 1.75781 0.99218 2.375-0.29297 3.26562-2.99218 5.95703-4.89453 8.03515-0.71484-0.51171-1.625-1.0625-2.32031-1.69531-1.17969-1.07812-2.33984-1.90234-3.26172-3.19531-0.91797-1.29688-1.36328-3.01563-0.73437-4.45313m-15.929692 6.48829c0.09766 8.49218 5.925781 20.089843 19.113282 20.089843 12.23437 0 21.50781-14.683593 15.67187-27.074223-5.18359-11.011719-15.86328-11.761719-24.082028-8.636719-4.636718 1.761719-10.808593 6.707031-10.703124 15.621099"/><path d="m189.8313 64.390783-14.99219 1.105469s-0.96093 22.066405-3.85937 25.546875c-3.3711 4.04297-8.27344 2.75781-9.5586-7.90234-1.28906-10.66016-1.47265-17.093754-1.47265-17.093754l-13.23438 0.367188s0.0625 10.046876 1.28907 21.136716c0.77343 7.01172 2.65234 15.472663 7.98437 18.781253 2.80078 1.74219 10.39453 2.35547 12.60156 0.33594 0 0-7.375 11.55469-20.40234 15.07031-10.24609 2.76563-21.17188 3.25391-37.3125-3.30859-15.699222-6.37891-29.988282-13.42578-44.574221-13.42578-12.867187 0-22.917969 6.84765-25.597656 17.85937-2.054687 8.44531 4.410156 27.14063 18.910156 29.64453 9.738281 1.67969 16.339849 0.20703 23.535159-7.32031 7.625-7.98047 4.16797-20.53906-5.95313-19.34766 0 0 4.76172 4.46485 0.89453 8.33204-3.87109 3.87109-10.15234 2.21484-10.226559-6.1836-0.07422-8.39844 13.417969-13.05078 33.085941-5.69922 19.66797 7.35157 29.8164 14.23438 52.19922 10.84375 26.55078-4.01953 32.01172-26.02734 34.92578-42.457033 1.79297-10.12109 1.75781-26.285154 1.75781-26.285154"/></g></svg>
